REM DIRINDEX 1\2,1\3,1\4,1\5
REM DIRNAME cjc044,folder01,folder02,folder03,folder04
TITLE ""
FILE "1800_135.mp3" MP3
  TRACK 01 AUDIO
    TITLE "2:cjc044_4045"
    INDEX 01 00:00:00
  TRACK 02 AUDIO
    TITLE "0:"
    INDEX 01 00:01:13
  TRACK 03 AUDIO
    TITLE "3:cjc044_4046"
    INDEX 01 00:01:73
  TRACK 04 AUDIO
    TITLE "0:"
    INDEX 01 00:03:04
  TRACK 05 AUDIO
    TITLE "4:cjc044_4047"
    INDEX 01 00:03:66
  TRACK 06 AUDIO
    TITLE "0:"
    INDEX 01 00:05:12
  TRACK 07 AUDIO
    TITLE "5:cjc044_4048"
    INDEX 01 00:05:71
  TRACK 08 AUDIO
    TITLE "0:"
    INDEX 01 00:09:28
  TRACK 09 AUDIO
    TITLE "2:cjc044_4049"
    INDEX 01 00:11:13
  TRACK 10 AUDIO
    TITLE "0:"
    INDEX 01 00:12:28
  TRACK 11 AUDIO
    TITLE "3:cjc044_4050"
    INDEX 01 00:13:12
  TRACK 12 AUDIO
    TITLE "0:"
    INDEX 01 00:14:19
  TRACK 13 AUDIO
    TITLE "4:cjc044_4051"
    INDEX 01 00:15:01
  TRACK 14 AUDIO
    TITLE "0:"
    INDEX 01 00:16:16
  TRACK 15 AUDIO
    TITLE "5:cjc044_4052"
    INDEX 01 00:16:73
  TRACK 16 AUDIO
    TITLE "0:"
    INDEX 01 00:19:69
  TRACK 17 AUDIO
    TITLE "2:cjc044_4053"
    INDEX 01 00:21:55
  TRACK 18 AUDIO
    TITLE "0:"
    INDEX 01 00:22:50
  TRACK 19 AUDIO
    TITLE "3:cjc044_4054"
    INDEX 01 00:23:34
  TRACK 20 AUDIO
    TITLE "0:"
    INDEX 01 00:24:49
  TRACK 21 AUDIO
    TITLE "4:cjc044_4055"
    INDEX 01 00:25:35
  TRACK 22 AUDIO
    TITLE "0:"
    INDEX 01 00:26:32
  TRACK 23 AUDIO
    TITLE "5:cjc044_4056"
    INDEX 01 00:27:14
  TRACK 24 AUDIO
    TITLE "0:"
    INDEX 01 00:30:36
  TRACK 25 AUDIO
    TITLE "2:cjc044_4057"
    INDEX 01 00:32:29
  TRACK 26 AUDIO
    TITLE "0:"
    INDEX 01 00:33:48
  TRACK 27 AUDIO
    TITLE "3:cjc044_4058"
    INDEX 01 00:34:36
  TRACK 28 AUDIO
    TITLE "0:"
    INDEX 01 00:35:37
  TRACK 29 AUDIO
    TITLE "4:cjc044_4059"
    INDEX 01 00:36:19
  TRACK 30 AUDIO
    TITLE "0:"
    INDEX 01 00:37:38
  TRACK 31 AUDIO
    TITLE "5:cjc044_4060"
    INDEX 01 00:38:24
  TRACK 32 AUDIO
    TITLE "0:"
    INDEX 01 00:41:14
  TRACK 33 AUDIO
    TITLE "2:cjc044_4061"
    INDEX 01 00:42:68
  TRACK 34 AUDIO
    TITLE "0:"
    INDEX 01 00:44:26
  TRACK 35 AUDIO
    TITLE "3:cjc044_4062"
    INDEX 01 00:45:00
  TRACK 36 AUDIO
    TITLE "0:"
    INDEX 01 00:47:01
  TRACK 37 AUDIO
    TITLE "4:cjc044_4063"
    INDEX 01 00:47:58
  TRACK 38 AUDIO
    TITLE "0:"
    INDEX 01 00:49:12
  TRACK 39 AUDIO
    TITLE "5:cjc044_4064"
    INDEX 01 00:49:63
  TRACK 40 AUDIO
    TITLE "0:"
    INDEX 01 00:53:31
  TRACK 41 AUDIO
    TITLE "2:cjc044_4065"
    INDEX 01 00:55:14
  TRACK 42 AUDIO
    TITLE "0:"
    INDEX 01 00:56:43
  TRACK 43 AUDIO
    TITLE "3:cjc044_4066"
    INDEX 01 00:57:21
  TRACK 44 AUDIO
    TITLE "0:"
    INDEX 01 00:58:38
  TRACK 45 AUDIO
    TITLE "4:cjc044_4067"
    INDEX 01 00:59:22
  TRACK 46 AUDIO
    TITLE "0:"
    INDEX 01 01:00:47
  TRACK 47 AUDIO
    TITLE "5:cjc044_4068"
    INDEX 01 01:01:29
  TRACK 48 AUDIO
    TITLE "0:"
    INDEX 01 01:04:09
  TRACK 49 AUDIO
    TITLE "2:cjc044_4069"
    INDEX 01 01:05:68
  TRACK 50 AUDIO
    TITLE "0:"
    INDEX 01 01:07:04
  TRACK 51 AUDIO
    TITLE "3:cjc044_4070"
    INDEX 01 01:07:63
  TRACK 52 AUDIO
    TITLE "0:"
    INDEX 01 01:09:14
  TRACK 53 AUDIO
    TITLE "4:cjc044_4071"
    INDEX 01 01:09:73
  TRACK 54 AUDIO
    TITLE "0:"
    INDEX 01 01:11:11
  TRACK 55 AUDIO
    TITLE "5:cjc044_4072"
    INDEX 01 01:11:70
  TRACK 56 AUDIO
    TITLE "0:"
    INDEX 01 01:15:25
  TRACK 57 AUDIO
    TITLE "2:cjc044_4073"
    INDEX 01 01:17:08
  TRACK 58 AUDIO
    TITLE "0:"
    INDEX 01 01:18:29
  TRACK 59 AUDIO
    TITLE "3:cjc044_4074"
    INDEX 01 01:19:15
  TRACK 60 AUDIO
    TITLE "0:"
    INDEX 01 01:20:12
  TRACK 61 AUDIO
    TITLE "4:cjc044_4075"
    INDEX 01 01:20:73
  TRACK 62 AUDIO
    TITLE "0:"
    INDEX 01 01:22:19
  TRACK 63 AUDIO
    TITLE "5:cjc044_4076"
    INDEX 01 01:22:70
  TRACK 64 AUDIO
    TITLE "0:"
    INDEX 01 01:26:29
  TRACK 65 AUDIO
    TITLE "2:cjc044_4077"
    INDEX 01 01:28:12
  TRACK 66 AUDIO
    TITLE "0:"
    INDEX 01 01:29:19
  TRACK 67 AUDIO
    TITLE "3:cjc044_4078"
    INDEX 01 01:30:03
  TRACK 68 AUDIO
    TITLE "0:"
    INDEX 01 01:30:67
  TRACK 69 AUDIO
    TITLE "4:cjc044_4079"
    INDEX 01 01:31:49
  TRACK 70 AUDIO
    TITLE "0:"
    INDEX 01 01:32:55
  TRACK 71 AUDIO
    TITLE "5:cjc044_4080"
    INDEX 01 01:33:40
  TRACK 72 AUDIO
    TITLE "0:"
    INDEX 01 01:35:61
